HIERARCHY
ROOT hip
{
  OFFSET 0.00112043 5.09927 -9.65472
  CHANNELS 6 Xposition Yposition Zposition Zrotation Xrotation Yrotation
  JOINT abdomen
  {
    OFFSET 0 -1.186 -1.5018
    CHANNELS 3 Zrotation Xrotation Yrotation
    JOINT abdomen2
    {
      OFFSET 0 9.964 0.2134
      CHANNELS 3 Zrotation Xrotation Yrotation
      JOINT chest
      {
        OFFSET 0 13.134 -3.2573
        CHANNELS 3 Zrotation Xrotation Yrotation
        JOINT neck
        {
          OFFSET 0 20.686 -1.6905
          CHANNELS 3 Zrotation Xrotation Yrotation
          JOINT head
          {
            OFFSET 0 7.238 -0.1237
            CHANNELS 3 Zrotation Xrotation Yrotation
            End Site
            {
              OFFSET 0 0 0
            }
          }
        }
        JOINT lCollar
        {
          OFFSET 1.7069 20.075 5.0056
          CHANNELS 3 Zrotation Xrotation Yrotation
          JOINT lShldr
          {
            OFFSET 13.6458 -0.047 -4.849
            CHANNELS 3 Zrotation Xrotation Yrotation
            JOINT lForeArm
            {
              OFFSET 28.3255 -0.9759 2.2888
              CHANNELS 3 Zrotation Xrotation Yrotation
              JOINT lHand
              {
                OFFSET 22.1583 -0.53 10.8316
                CHANNELS 3 Zrotation Xrotation Yrotation
                JOINT lThumb1
                {
                  OFFSET 0.786 0.112 2.5817
                  CHANNELS 3 Zrotation Xrotation Yrotation
                  JOINT lThumb2
                  {
                    OFFSET 0.3601 -0.878 4.2331
                    CHANNELS 3 Zrotation Xrotation Yrotation
                    JOINT lThumb2_End
                    {
                      OFFSET 1.8127 -1.216 2.2227
                      CHANNELS 3 Zrotation Xrotation Yrotation
                      End Site
                      {
                        OFFSET 0.0181 -0.0122 0.0222
                      }
                    }
                  }
                }
                JOINT lCarpal1
                {
                  OFFSET 0.9571 1.114 1.7695
                  CHANNELS 3 Zrotation Xrotation Yrotation
                  JOINT lIndex1
                  {
                    OFFSET 4.1246 0.487 4.1451
                    CHANNELS 3 Zrotation Xrotation Yrotation
                    JOINT lIndex2
                    {
                      OFFSET 3.4052 -1.454 2.7682
                      CHANNELS 3 Zrotation Xrotation Yrotation
                      JOINT lIndex2_End
                      {
                        OFFSET 1.4531 -1.795 1.2713
                        CHANNELS 3 Zrotation Xrotation Yrotation
                        End Site
                        {
                          OFFSET 0.0145 -0.0179 0.0127
                        }
                      }
                    }
                  }
                  JOINT lMid1
                  {
                    OFFSET 5.6954 0.21 2.1184
                    CHANNELS 3 Zrotation Xrotation Yrotation
                    JOINT lMid2
                    {
                      OFFSET 3.9766 -1.54 2.3863
                      CHANNELS 3 Zrotation Xrotation Yrotation
                      JOINT lMid2_End
                      {
                        OFFSET 1.4042 -1.926 1.125
                        CHANNELS 3 Zrotation Xrotation Yrotation
                        End Site
                        {
                          OFFSET 0.014 -0.0193 0.0113
                        }
                      }
                    }
                  }
                }
                JOINT lCarpal2
                {
                  OFFSET 2.0956 0.66 -0.3894
                  CHANNELS 3 Zrotation Xrotation Yrotation
                  JOINT lRing1
                  {
                    OFFSET 5.0395 -0.09 2.4971
                    CHANNELS 3 Zrotation Xrotation Yrotation
                    JOINT lRing2
                    {
                      OFFSET 3.7921 -1.552 1.4806
                      CHANNELS 3 Zrotation Xrotation Yrotation
                      JOINT lRing2_End
                      {
                        OFFSET 1.4655 -1.808 0.9609
                        CHANNELS 3 Zrotation Xrotation Yrotation
                        End Site
                        {
                          OFFSET 0.0147 -0.0181 0.0096
                        }
                      }
                    }
                  }
                  JOINT lPinky1
                  {
                    OFFSET 4.9141 -1.269 0.3591
                    CHANNELS 3 Zrotation Xrotation Yrotation
                    JOINT lPinky2
                    {
                      OFFSET 3.1477 -1.685 0.8462
                      CHANNELS 3 Zrotation Xrotation Yrotation
                      JOINT lPinky2_End
                      {
                        OFFSET 0.8055 -1.585 0.7955
                        CHANNELS 3 Zrotation Xrotation Yrotation
                        End Site
                        {
                          OFFSET 0.0081 -0.0158 0.008
                        }
                      }
                    }
                  }
                }
              }
            }
          }
        }
        JOINT rCollar
        {
          OFFSET -1.7069 20.075 5.0056
          CHANNELS 3 Zrotation Xrotation Yrotation
          JOINT rShldr
          {
            OFFSET -13.6458 -0.047 -4.849
            CHANNELS 3 Zrotation Xrotation Yrotation
            JOINT rForeArm
            {
              OFFSET -28.3255 -0.9759 2.2888
              CHANNELS 3 Zrotation Xrotation Yrotation
              JOINT rHand
              {
                OFFSET -22.1583 -0.53 10.8316
                CHANNELS 3 Zrotation Xrotation Yrotation
                JOINT rThumb1
                {
                  OFFSET -0.786 0.112 2.5817
                  CHANNELS 3 Zrotation Xrotation Yrotation
                  JOINT rThumb2
                  {
                    OFFSET -0.3601 -0.878 4.2331
                    CHANNELS 3 Zrotation Xrotation Yrotation
                    JOINT rThumb2_End
                    {
                      OFFSET -1.8127 -1.216 2.2227
                      CHANNELS 3 Zrotation Xrotation Yrotation
                      End Site
                      {
                        OFFSET -0.0181 -0.0122 0.0222
                      }
                    }
                  }
                }
                JOINT rCarpal1
                {
                  OFFSET -0.9571 1.114 1.7695
                  CHANNELS 3 Zrotation Xrotation Yrotation
                  JOINT rIndex1
                  {
                    OFFSET -4.1246 0.487 4.1451
                    CHANNELS 3 Zrotation Xrotation Yrotation
                    JOINT rIndex2
                    {
                      OFFSET -3.4052 -1.454 2.7682
                      CHANNELS 3 Zrotation Xrotation Yrotation
                      JOINT rIndex2_End
                      {
                        OFFSET -1.4531 -1.795 1.2713
                        CHANNELS 3 Zrotation Xrotation Yrotation
                        End Site
                        {
                          OFFSET -0.0145 -0.018 0.0127
                        }
                      }
                    }
                  }
                  JOINT rMid1
                  {
                    OFFSET -5.6954 0.21 2.1184
                    CHANNELS 3 Zrotation Xrotation Yrotation
                    JOINT rMid2
                    {
                      OFFSET -3.9766 -1.54 2.3863
                      CHANNELS 3 Zrotation Xrotation Yrotation
                      JOINT rMid2_End
                      {
                        OFFSET -1.4042 -1.926 1.125
                        CHANNELS 3 Zrotation Xrotation Yrotation
                        End Site
                        {
                          OFFSET -0.014 -0.0193 0.0113
                        }
                      }
                    }
                  }
                }
                JOINT rCarpal2
                {
                  OFFSET -2.0956 0.66 -0.3894
                  CHANNELS 3 Zrotation Xrotation Yrotation
                  JOINT rRing1
                  {
                    OFFSET -5.0395 -0.09 2.4971
                    CHANNELS 3 Zrotation Xrotation Yrotation
                    JOINT rRing2
                    {
                      OFFSET -3.7921 -1.552 1.4806
                      CHANNELS 3 Zrotation Xrotation Yrotation
                      JOINT rRing2_End
                      {
                        OFFSET -1.4655 -1.808 0.9609
                        CHANNELS 3 Zrotation Xrotation Yrotation
                        End Site
                        {
                          OFFSET -0.0147 -0.0181 0.0096
                        }
                      }
                    }
                  }
                  JOINT rPinky1
                  {
                    OFFSET -4.9141 -1.269 0.3592
                    CHANNELS 3 Zrotation Xrotation Yrotation
                    JOINT rPinky2
                    {
                      OFFSET -3.1477 -1.685 0.8462
                      CHANNELS 3 Zrotation Xrotation Yrotation
                      JOINT rPinky2_End
                      {
                        OFFSET -0.8055 -1.585 0.7955
                        CHANNELS 3 Zrotation Xrotation Yrotation
                        End Site
                        {
                          OFFSET -0.0081 -0.0158 0.008
                        }
                      }
                    }
                  }
                }
              }
            }
          }
        }
      }
    }
  }
  JOINT lThigh
  {
    OFFSET 8.367 -8.2066 0.5982
    CHANNELS 3 Zrotation Xrotation Yrotation
    JOINT lShin
    {
      OFFSET 2.1923 -43.463 -0.4932
      CHANNELS 3 Zrotation Xrotation Yrotation
      JOINT lFoot
      {
        OFFSET 0.7333 -45.8593 -2.6451
        CHANNELS 3 Zrotation Xrotation Yrotation
        End Site
        {
          OFFSET 2.6618 -4.2699 12.3931
        }
      }
    }
  }
  JOINT rThigh
  {
    OFFSET -8.367 -8.2066 0.5982
    CHANNELS 3 Zrotation Xrotation Yrotation
    JOINT rShin
    {
      OFFSET -2.1923 -43.463 -0.4931
      CHANNELS 3 Zrotation Xrotation Yrotation
      JOINT rFoot
      {
        OFFSET -0.7333 -45.8593 -2.6451
        CHANNELS 3 Zrotation Xrotation Yrotation
        End Site
        {
          OFFSET -2.6618 -4.2699 12.3931
        }
      }
    }
  }
}
MOTION
Frames:	4
Frame Time:	0.0333333
42.4305 31.1862 28.3535 -179.72 88.7724 -0.279907 -0.00465562 1.36984 -0.0895879 -0.00717103 2.73969 -0.179141 -0.00717111 2.73967 -0.179141 -7.46261 9.37014 17.8852 0.000185604 0.0850293 -0.121828 -23.5971 -2.85662 -6.66945 -34.6213 54.8712 5.31114 13.2449 34.2293 -1.95155 -2.45885 -4.72693 -3.38449 1.59028e-015 -2.54444e-014 6.36111e-015 1.41245e-030 -2.54444e-014 3.18055e-015 2.38542e-015 -2.46493e-014 -6.36111e-015 1.59028e-015 -7.95139e-016 6.36111e-015 7.95139e-016 -2.62396e-014 9.54166e-015 3.18055e-015 -2.46493e-014 -6.36111e-015 -0 -2.54444e-014 -0 7.95139e-016 -2.62396e-014 9.54166e-015 3.18055e-015 -2.46493e-014 -6.36111e-015 -0 -2.54444e-014 -0 1.59028e-015 -7.95139e-016 6.36111e-015 7.95139e-016 -2.62396e-014 9.54166e-015 3.18055e-015 -2.46493e-014 -6.36111e-015 -0 -2.54444e-014 -0 7.95139e-016 -2.62396e-014 9.54166e-015 3.18055e-015 -2.46493e-014 -6.36111e-015 -0 -2.54444e-014 -0 24.709 -2.70354 6.82325 33.7161 54.8414 -4.8935 -14.7077 34.2294 2.0137 2.4006 -4.85953 3.28655 -7.95139e-016 2.38542e-015 -0 -1.86618e-007 -3.82156e-007 -3.02186e-008 7.95139e-016 0 6.36111e-015 -7.95139e-016 1.59028e-015 -0 7.95139e-016 0 9.54166e-015 -1.86618e-007 -3.82156e-007 -3.02186e-008 2.38542e-015 -1.59028e-015 1.59028e-014 7.95139e-016 0 9.54166e-015 -1.86618e-007 -3.82156e-007 -3.02186e-008 2.38542e-015 -1.59028e-015 1.59028e-014 -7.95139e-016 1.59028e-015 -0 7.95139e-016 0 9.54166e-015 -1.86618e-007 -3.82156e-007 -3.02186e-008 2.38542e-015 -1.59028e-015 1.59028e-014 7.95139e-016 0 9.54166e-015 -1.86618e-007 -3.82156e-007 -3.02186e-008 2.38542e-015 -1.59028e-015 1.59028e-014 102.604 -79.3275 130.308 -0.232424 24.3497 -40.8654 19.6276 8.92725 6.89108 -106.011 -81.2562 -133.777 0.094563 24.4706 40.9427 -21.4109 9.29679 -7.32604 
42.4305 31.2043 28.2951 -179.671 88.9558 -0.329048 -0.00429382 1.25287 -0.0895627 -0.00663055 2.50575 -0.179096 -0.00663053 2.50572 -0.179096 -7.58527 9.30194 17.8435 0.000179649 0.0847359 -0.121422 -23.0395 -2.78978 -6.41165 -35.1966 54.8836 5.36388 13.3985 34.1727 -2.2158 -2.5945 -4.46631 -3.27291 -1.59028e-015 -2.38542e-015 -0 -3.18055e-015 -4.77083e-015 3.18055e-015 -7.95139e-016 -2.38542e-015 -3.18055e-015 -1.59028e-015 0 -0 -1.59028e-015 -3.18055e-015 9.54166e-015 -2.38542e-015 -3.18055e-015 -3.18055e-015 -1.76556e-031 -3.18055e-015 -3.18055e-015 -1.59028e-015 -3.18055e-015 9.54166e-015 -2.38542e-015 -3.18055e-015 -3.18055e-015 -1.76556e-031 -3.18055e-015 -3.18055e-015 -1.59028e-015 0 -0 -1.59028e-015 -3.18055e-015 9.54166e-015 -2.38542e-015 -3.18055e-015 -3.18055e-015 -1.76556e-031 -3.18055e-015 -3.18055e-015 -1.59028e-015 -3.18055e-015 9.54166e-015 -2.38542e-015 -3.18055e-015 -3.18055e-015 -1.76556e-031 -3.18055e-015 -3.18055e-015 24.1115 -2.64521 6.55965 34.3367 54.8543 -4.9456 -14.8666 34.1665 2.26906 2.5378 -4.59306 3.18054 1.59028e-015 -1.59028e-015 9.54166e-015 7.95139e-016 -7.95139e-016 3.18055e-015 7.95139e-016 0 3.18055e-015 1.59028e-015 -1.59028e-015 9.54166e-015 1.59028e-015 -2.38542e-015 3.18055e-015 0 0 -0 -7.95139e-016 -1.59028e-015 6.36111e-015 1.59028e-015 -2.38542e-015 3.18055e-015 0 0 -0 -7.95139e-016 -1.59028e-015 6.36111e-015 1.59028e-015 -1.59028e-015 9.54166e-015 1.59028e-015 -2.38542e-015 3.18055e-015 0 0 -0 -7.95139e-016 -1.59028e-015 6.36111e-015 1.59028e-015 -2.38542e-015 3.18055e-015 0 0 -0 -7.95139e-016 -1.59028e-015 6.36111e-015 102.568 -79.3339 130.267 -0.238072 24.2173 -40.8699 19.6305 8.92499 6.89104 -105.975 -81.2626 -133.737 0.0962074 24.3426 40.9482 -21.414 9.29462 -7.32599 
42.4305 31.2223 28.2367 -179.601 89.1391 -0.39912 -0.00393136 1.13597 -0.0895418 -0.00608849 2.27195 -0.179059 -0.00608852 2.2719 -0.179058 -7.70793 9.23311 17.8016 0.000177706 0.0844511 -0.121014 -22.4823 -2.72077 -6.15468 -35.7719 54.8957 5.4168 13.5517 34.1154 -2.47965 -2.7306 -4.20596 -3.16068 -7.95139e-016 2.38542e-015 -6.36111e-015 -2.38542e-015 3.18055e-015 -3.18055e-015 -1.59028e-015 3.18055e-015 -3.18055e-015 7.95139e-016 -7.95139e-016 -6.36111e-015 -2.38542e-015 2.38542e-015 -3.18055e-015 -2.38542e-015 2.38542e-015 -0 -7.95139e-016 0 -9.54166e-015 -2.38542e-015 2.38542e-015 -3.18055e-015 -2.38542e-015 2.38542e-015 -0 -7.95139e-016 0 -9.54166e-015 7.95139e-016 -7.95139e-016 -6.36111e-015 -2.38542e-015 2.38542e-015 -3.18055e-015 -2.38542e-015 2.38542e-015 -0 -7.95139e-016 0 -9.54166e-015 -2.38542e-015 2.38542e-015 -3.18055e-015 -2.38542e-015 2.38542e-015 -0 -7.95139e-016 0 -9.54166e-015 23.5145 -2.58446 6.2969 34.9574 54.8668 -4.99796 -15.0251 34.1031 2.52401 2.67543 -4.32684 3.07388 1.59028e-015 -7.95139e-016 -6.36111e-015 -2.81902e-007 7.12856e-007 -2.94308e-006 -0 0 6.36111e-015 1.59028e-015 -7.95139e-016 -6.36111e-015 3.97569e-015 -2.38542e-015 -3.18055e-015 -2.81902e-007 7.12856e-007 -2.94308e-006 5.56597e-015 1.59028e-015 -9.54166e-015 3.97569e-015 -2.38542e-015 -3.18055e-015 -2.81902e-007 7.12856e-007 -2.94308e-006 5.56597e-015 1.59028e-015 -9.54166e-015 1.59028e-015 -7.95139e-016 -6.36111e-015 3.97569e-015 -2.38542e-015 -3.18055e-015 -2.81902e-007 7.12856e-007 -2.94308e-006 5.56597e-015 1.59028e-015 -9.54166e-015 3.97569e-015 -2.38542e-015 -3.18055e-015 -2.81902e-007 7.12856e-007 -2.94308e-006 5.56597e-015 1.59028e-015 -9.54166e-015 102.532 -79.3404 130.227 -0.2437 24.0848 -40.8744 19.6333 8.92279 6.891 -105.939 -81.269 -133.696 0.0978564 24.2145 40.9537 -21.417 9.29248 -7.32593 
42.4305 31.2404 28.1782 -179.493 89.3225 -0.507121 -0.00356857 1.01899 -0.0895158 -0.00554596 2.03803 -0.17901 -0.00554595 2.03801 -0.179011 -7.83073 9.1637 17.7597 0.000177397 0.0841592 -0.12061 -21.9256 -2.64897 -5.89835 -36.3473 54.9075 5.46997 13.7045 34.0576 -2.74314 -2.86716 -3.94591 -3.04797 1.76556e-031 3.18055e-015 -3.18055e-015 -7.95139e-016 4.77083e-015 -3.18055e-015 -1.59028e-015 1.59028e-015 3.18055e-015 4.41391e-032 7.95139e-016 -3.18055e-015 4.41391e-032 7.95139e-016 -3.18055e-015 -7.95139e-016 3.97569e-015 -0 7.95139e-016 0 -0 4.41391e-032 7.95139e-016 -3.18055e-015 -7.95139e-016 3.97569e-015 -0 7.95139e-016 0 -0 4.41391e-032 7.95139e-016 -3.18055e-015 4.41391e-032 7.95139e-016 -3.18055e-015 -7.95139e-016 3.97569e-015 -0 7.95139e-016 0 -0 4.41391e-032 7.95139e-016 -3.18055e-015 -7.95139e-016 3.97569e-015 -0 7.95139e-016 0 -0 22.9178 -2.52068 6.03471 35.5782 54.8789 -5.05055 -15.1831 34.0391 2.7786 2.81351 -4.0609 2.96671 1.59028e-015 0 3.18055e-015 7.95139e-016 7.95139e-016 1.27222e-014 -2.38542e-015 1.59028e-015 9.54166e-015 2.38542e-015 0 -6.36111e-015 -7.95139e-016 1.59028e-015 1.27222e-014 2.38542e-015 7.95139e-016 6.36111e-015 -1.59028e-015 0 1.27222e-014 -7.95139e-016 1.59028e-015 1.27222e-014 2.38542e-015 7.95139e-016 6.36111e-015 -1.59028e-015 0 1.27222e-014 2.38542e-015 0 -6.36111e-015 -7.95139e-016 1.59028e-015 1.27222e-014 2.38542e-015 7.95139e-016 6.36111e-015 -1.59028e-015 0 1.27222e-014 -7.95139e-016 1.59028e-015 1.27222e-014 2.38542e-015 7.95139e-016 6.36111e-015 -1.59028e-015 0 1.27222e-014 102.496 -79.3469 130.186 -0.249319 23.9521 -40.879 19.6361 8.92064 6.89096 -105.902 -81.2756 -133.654 0.0995002 24.0862 40.9593 -21.4199 9.29041 -7.32587 
